<svg width="745" height="632" viewBox="0 0 745 632" fill="none" xmlns="http://www.w3.org/2000/svg">
<g filter="url(#filter0_d_50_82)">
<path d="M292.482 297.243C293.953 307.204 292.972 317.456 289.634 327.039C289.52 327.367 289.402 327.705 289.442 328.047C289.502 328.555 289.899 328.969 290.276 329.349C291.659 330.739 293.043 332.13 294.424 333.521C296.008 335.114 297.645 336.744 299.76 337.706C301.066 338.301 302.501 338.614 303.883 339.043C305.46 339.532 306.975 340.174 308.527 340.725C311.792 341.884 332.952 346.341 351.016 334.681C353.537 333.053 357.295 330.274 361.005 325.887C359.869 324.171 358.282 321.544 356.833 318.171C354.187 312.009 353.491 306.812 352.628 299.992C352.267 297.137 351.872 293.213 351.715 288.499" fill="black"/>
<path d="M292.482 297.243C293.953 307.204 292.972 317.456 289.634 327.039C289.52 327.367 289.402 327.705 289.442 328.047C289.502 328.555 289.899 328.969 290.276 329.349C291.659 330.739 293.043 332.13 294.424 333.521C296.008 335.114 297.645 336.744 299.76 337.706C301.066 338.301 302.501 338.614 303.883 339.043C305.46 339.532 306.975 340.174 308.527 340.725C311.792 341.884 332.952 346.341 351.016 334.681C353.537 333.053 357.295 330.274 361.005 325.887C359.869 324.171 358.282 321.544 356.833 318.171C354.187 312.009 353.491 306.812 352.628 299.992C352.267 297.137 351.872 293.213 351.715 288.499" stroke="black" stroke-width="2" stroke-miterlimit="10"/>
</g>
<g filter="url(#filter1_d_50_82)">
<path d="M282.808 265.995C279.19 268.143 274.179 271.117 272.528 276.964C271.199 281.67 272.421 286.915 275.705 290.657C276.806 291.913 279.951 295.065 290.503 296.933C304.424 299.397 316.034 296.939 319.936 296.13C333.1 293.404 371.817 285.385 371.117 277.056C370.912 274.62 366.401 272.435 361.272 269.887C358.053 268.288 355.225 267.427 352.834 266.701C348.959 265.522 345.858 264.925 343.34 264.47C335.192 263.002 329.165 261.915 320.486 261.284C312.028 260.671 307.16 260.317 300.337 261.123C294.198 261.848 288.628 262.543 282.811 265.997L282.808 265.995Z" fill="#CCCCCC"/>
<path d="M282.808 265.995C279.19 268.143 274.179 271.117 272.528 276.964C271.199 281.67 272.421 286.915 275.705 290.657C276.806 291.913 279.951 295.065 290.503 296.933C304.424 299.397 316.034 296.939 319.936 296.13C333.1 293.404 371.817 285.385 371.117 277.056C370.912 274.62 366.401 272.435 361.272 269.887C358.053 268.288 355.225 267.427 352.834 266.701C348.959 265.522 345.858 264.925 343.34 264.47C335.192 263.002 329.165 261.915 320.486 261.284C312.028 260.671 307.16 260.317 300.337 261.123C294.198 261.848 288.628 262.543 282.811 265.997L282.808 265.995Z" stroke="black" stroke-width="2" stroke-miterlimit="10"/>
</g>
<path d="M291.369 282.54C292.208 286.228 303.427 286.928 306.066 287.093C309.377 287.3 312.133 287.151 318.557 286.376C342.352 283.509 345.311 280.635 346.325 278.49C346.61 277.89 347.044 276.934 346.677 275.941C346.236 274.751 344.585 273.357 330.503 272.118C325.29 271.659 322.685 271.429 319.603 271.48C317.346 271.517 311.91 271.713 305.187 273.233C299.672 274.48 297.696 275.623 296.924 276.101C295.708 276.854 290.77 279.908 291.369 282.54Z" fill="#333333" stroke="black" stroke-width="2" stroke-miterlimit="10"/>
<path d="M299.439 250.773C296.148 259.788 297.923 268.014 298.159 269.819C299.43 279.606 302.508 283.563 302.835 285.411C302.857 285.527 302.932 285.958 303.296 286.283C303.658 286.606 304.219 286.646 304.727 286.66C308.285 286.759 311.852 286.558 315.37 286.063C315.653 286.023 315.945 285.978 316.191 285.843C316.854 285.478 316.916 284.643 316.903 283.941C316.726 274.146 316.727 269.247 316.624 268.544C315.379 260.131 315.764 259.102 314.368 254.813C313.294 251.512 312.088 249.116 309.632 247.276C308.906 246.731 305.655 244.198 303.025 245.256C301.098 246.03 300.04 249.129 299.439 250.773Z" fill="white" stroke="black" stroke-width="2" stroke-miterlimit="10"/>
<path d="M301.955 245.321C304.62 246.075 306.766 247.956 308.171 250.144C309.576 252.329 310.311 254.813 310.87 257.29C312.556 264.772 312.758 272.452 312.939 280.087C312.988 282.183 313.036 284.294 312.663 286.366" stroke="black" stroke-width="2" stroke-miterlimit="10"/>
<path d="M323.615 285.008C323.506 283.205 323.397 281.398 323.411 279.592C323.42 278.368 323.487 277.144 323.554 275.923C323.728 272.703 323.904 269.483 324.187 266.271C324.399 263.866 324.744 262.147 325.431 260.112C326.17 257.923 327.747 254.448 331.449 250.743C331.449 250.743 334.57 247.738 337.53 247.295C337.815 247.252 338.596 247.257 339.341 247.572C342.27 248.812 342.27 254.187 342.191 261.267C342.164 263.603 342.164 265.731 341.655 269.947C341.273 273.093 340.631 276.206 339.99 279.318C339.763 280.418 339.805 281.903 338.627 282.467C337.386 283.063 335.398 283.149 334.023 283.412C333.16 283.578 323.617 285.053 323.614 285.007L323.615 285.008Z" fill="white" stroke="black" stroke-width="2" stroke-miterlimit="10"/>
<path d="M338.284 247.473C337.62 247.193 336.881 247.677 336.377 248.158C331.968 252.353 330.642 258.413 329.637 264.136C328.439 270.945 327.418 277.804 327.4 284.697" stroke="black" stroke-width="2" stroke-miterlimit="10"/>
<path d="M421.326 296.828C421.326 301.826 417.126 308.168 411.204 310.016L408.432 310.94C407.886 311.318 404.82 313.376 402.888 313.376C400.788 313.376 399.276 311.738 399.276 310.31C399.276 309.722 399.108 309.176 399.108 308.546C399.108 308.336 399.15 308.126 399.192 307.874L399.864 304.766L400.326 304.01L401.208 298.298L401.544 297.332V295.022L401.838 294.308L402.09 291.41L402.72 289.058L402.93 288.512L403.14 286.916L403.77 286.244L404.316 285.236L406.206 284.984L406.878 285.11L407.592 284.942C407.592 284.942 412.464 285.992 414.564 287.042C418.26 289.184 421.326 293.51 421.326 296.828ZM416.79 297.92C416.79 293.258 412.548 289.688 407.298 289.688C407.088 289.688 406.836 290.234 406.668 290.57L406.626 291.536L406.038 294.224L405.912 295.736L405.324 298.088L405.45 299.012L404.526 305.06C404.358 306.068 403.896 307.16 403.896 307.79C403.896 308.126 404.022 308.336 404.358 308.378C404.736 308.378 407.004 306.992 407.004 306.992C407.004 306.992 409.776 305.9 411.33 304.934C412.422 304.262 413.85 303.17 414.312 302.792L414.942 301.07L415.53 300.44L415.908 299.306C415.908 299.306 416.79 298.34 416.79 297.92ZM447.987 293.888C447.987 295.358 447.273 296.576 445.929 297.752L443.073 300.146C443.031 300.188 442.905 300.188 442.947 300.23L445.425 305.522L446.853 307.244C447.063 307.454 447.147 307.832 447.147 308.252C447.147 309.848 445.887 312.326 444.879 312.326C444.375 312.326 443.493 311.402 443.031 310.646L441.603 308.294L441.225 306.824L440.133 305.648L439.797 304.724L438.495 302.288C438.411 302.078 438.453 301.952 438.243 301.952C437.865 301.952 436.647 302.708 436.647 302.708L435.387 302.834C434.883 302.876 434.547 304.01 434.547 304.682C434.547 304.724 434.547 304.766 434.547 304.808L435.093 310.94L435.135 312.62C435.135 313.334 433.749 315.728 432.321 315.728C431.481 315.728 430.557 314.384 430.557 313.502L430.389 305.102L430.095 302.918V301.616L429.843 299.096L430.095 298.088L429.801 295.232L429.465 293.216L429.591 292.334L429.465 288.89C429.465 288.848 429.465 288.806 429.465 288.764C429.465 286.916 431.397 285.068 432.405 285.026L437.067 284.69L439.629 284.522L440.889 285.152L443.241 286.034L444.165 286.958C444.501 287.252 447.987 290.402 447.987 293.888ZM443.577 293.888C443.577 293.426 443.157 292.628 442.611 292.082L441.057 290.36C440.595 289.814 440.259 289.268 439.713 289.268C439.671 289.268 439.587 289.268 439.545 289.268L437.949 289.604L436.101 289.352C435.891 289.31 435.723 289.31 435.513 289.31C434.673 289.31 433.917 289.562 433.875 290.192L433.833 291.032L434.631 295.988L434.589 297.626C434.589 297.962 434.757 298.55 435.219 298.55C435.849 298.55 438.033 296.786 438.033 296.786L439.251 296.534L441.855 295.316C441.855 295.316 443.577 294.434 443.577 293.888ZM479.125 298.676C479.125 302.33 477.025 305.354 476.899 305.48L476.059 307.118L473.707 308.966C473.707 308.966 472.783 309.554 472.069 309.974C470.389 310.73 469.171 311.234 467.785 311.234C465.685 311.234 462.913 310.226 461.611 309.638C460.771 310.94 458.881 313.376 456.697 313.376C455.731 313.376 454.723 311.654 454.723 311.654L456.067 309.512L457.453 308.294C457.621 308.126 457.705 308 457.705 307.874C457.705 307.706 457.579 307.538 457.453 307.37L456.655 306.362L455.689 304.556C455.689 304.556 454.219 302.498 454.219 298.55C454.219 297.29 454.765 295.316 454.765 295.316L455.185 294.56L455.899 293.09L458.041 291.116C458.209 290.864 460.141 288.806 461.779 288.302C463.585 287.714 465.139 287.504 466.441 287.504C468.037 287.504 469.255 287.798 469.969 288.008L470.431 287.84L470.725 287.126L471.229 286.496L472.615 285.572C472.951 285.32 473.413 285.194 473.875 285.194C474.463 285.194 475.009 285.404 475.387 285.908C475.681 286.244 475.807 286.706 475.807 287.126C475.807 287.63 475.639 288.092 475.261 288.428C474.799 288.932 474.421 289.184 474.421 289.52C474.421 289.562 474.421 289.562 474.421 289.604C474.505 289.814 474.799 290.024 475.009 290.15C477.739 292.166 479.125 294.98 479.125 298.676ZM473.203 302.876C474.211 300.944 474.715 299.222 474.715 297.752C474.715 295.652 473.665 294.098 471.523 293.342C471.271 293.468 470.977 293.636 470.851 293.678L470.389 295.022L469.675 296.24L468.835 297.374L468.121 298.802L466.651 300.776L464.005 305.228C463.921 305.396 463.879 305.522 463.879 305.648C463.879 306.068 464.383 306.236 464.761 306.362C466.147 306.908 467.239 307.118 468.163 307.118C470.893 307.118 471.943 305.102 473.203 302.876ZM467.659 291.998C467.743 291.914 467.785 291.83 467.785 291.746C467.785 291.368 466.945 291.284 466.651 291.284C462.451 291.284 458.629 295.568 458.629 299.894C458.629 300.482 459.049 301.238 459.049 301.238L459.259 302.582L459.763 303.758C459.889 304.094 460.141 304.346 460.393 304.346C460.603 304.346 460.813 304.22 460.939 303.884L463.417 298.55L465.517 294.224L466.945 292.796L467.659 291.998ZM516.564 312.704C516.564 313.88 515.178 314.972 513.876 314.972C512.91 314.972 511.944 314.342 511.692 312.704L511.02 309.05L510.474 307.664L510.39 305.144L510.138 303.968L510.39 301.952L509.802 294.602C509.76 294.14 509.676 293.804 509.424 293.804C509.256 293.804 509.004 293.972 508.668 294.476L506.736 297.332L504.594 302.162L502.536 304.388L501.108 306.614C500.604 307.454 500.184 308.126 498.882 308.126C497.706 308.126 497.034 306.992 496.656 305.9L495.648 303.044L495.102 302.33L494.808 300.944L494.01 300.104C494.01 300.104 491.742 294.686 490.524 294.686C490.23 294.686 490.104 295.316 490.104 295.82C490.104 296.282 490.566 296.87 490.566 297.71C490.566 298.718 490.062 300.188 489.894 300.692L489.978 301.826L489.684 303.506L489.81 306.74L489.432 308.084L489.18 311.066C489.138 312.158 488.13 313.376 487.164 313.376C486.324 313.376 484.728 312.494 484.728 311.318C484.728 310.562 485.022 309.302 485.232 308.756L485.064 307.958L485.526 305.438V301.91L485.946 300.524C485.946 300.524 486.114 298.802 486.114 296.156C486.114 291.284 487.92 287.336 489.516 287.336C490.188 287.336 491.154 288.008 491.742 288.848C492.54 289.856 494.514 292.754 494.556 292.796L495.354 293.552L496.236 295.694C496.362 295.862 497.79 297.584 498.63 298.802C499.176 299.516 498.546 301.028 499.512 301.028C500.268 301.028 500.772 299.894 502.284 296.912C503.712 294.14 507.618 286.916 507.828 286.58C508.542 285.32 510.18 284.942 510.81 284.942C511.818 284.942 512.532 286.202 512.868 288.596C512.994 289.352 513.75 291.788 514.128 293.804C514.17 294.098 514.212 294.392 514.212 294.644C514.212 295.232 514.086 295.736 514.086 296.282C514.086 296.534 514.128 296.786 514.17 297.08C514.296 297.668 514.716 298.592 514.716 298.592L514.842 303.968L516.312 310.688C516.438 311.444 516.564 311.99 516.564 312.704ZM555.857 312.704C555.857 313.88 554.471 314.972 553.169 314.972C552.203 314.972 551.237 314.342 550.985 312.704L550.313 309.05L549.767 307.664L549.683 305.144L549.431 303.968L549.683 301.952L549.095 294.602C549.053 294.14 548.969 293.804 548.717 293.804C548.549 293.804 548.297 293.972 547.961 294.476L546.029 297.332L543.887 302.162L541.829 304.388L540.401 306.614C539.897 307.454 539.477 308.126 538.175 308.126C536.999 308.126 536.327 306.992 535.949 305.9L534.941 303.044L534.395 302.33L534.101 300.944L533.303 300.104C533.303 300.104 531.035 294.686 529.817 294.686C529.523 294.686 529.397 295.316 529.397 295.82C529.397 296.282 529.859 296.87 529.859 297.71C529.859 298.718 529.355 300.188 529.187 300.692L529.271 301.826L528.977 303.506L529.103 306.74L528.725 308.084L528.473 311.066C528.431 312.158 527.423 313.376 526.457 313.376C525.617 313.376 524.021 312.494 524.021 311.318C524.021 310.562 524.315 309.302 524.525 308.756L524.357 307.958L524.819 305.438V301.91L525.239 300.524C525.239 300.524 525.407 298.802 525.407 296.156C525.407 291.284 527.213 287.336 528.809 287.336C529.481 287.336 530.447 288.008 531.035 288.848C531.833 289.856 533.807 292.754 533.849 292.796L534.647 293.552L535.529 295.694C535.655 295.862 537.083 297.584 537.923 298.802C538.469 299.516 537.839 301.028 538.805 301.028C539.561 301.028 540.065 299.894 541.577 296.912C543.005 294.14 546.911 286.916 547.121 286.58C547.835 285.32 549.473 284.942 550.103 284.942C551.111 284.942 551.825 286.202 552.161 288.596C552.287 289.352 553.043 291.788 553.421 293.804C553.463 294.098 553.505 294.392 553.505 294.644C553.505 295.232 553.379 295.736 553.379 296.282C553.379 296.534 553.421 296.786 553.463 297.08C553.589 297.668 554.009 298.592 554.009 298.592L554.135 303.968L555.605 310.688C555.731 311.444 555.857 311.99 555.857 312.704ZM584.01 289.394C583.296 290.528 582.456 291.2 581.364 291.2C580.902 291.2 579.474 290.864 578.928 290.864L575.694 290.822L574.98 290.528L573.426 290.486L572.46 290.402C572.04 290.36 571.704 290.36 571.452 290.36C570.906 290.36 570.822 290.444 570.78 290.738L570.696 292.334L570.234 293.468L569.982 295.778C569.94 296.198 569.898 296.534 569.898 296.786C569.898 297.164 569.982 297.29 570.234 297.29L572.292 296.996L573.216 297.08L574.644 296.492L576.87 296.744C578.256 296.87 579.558 298.004 579.558 299.432C579.558 300.608 577.878 301.7 577.08 301.7C577.038 301.7 577.038 301.7 576.996 301.7L574.98 301.448L570.486 301.7L570.066 301.826L569.772 302.246L569.268 302.666L568.974 308.042C568.932 308.504 568.596 309.26 568.596 310.268C568.596 310.646 568.596 310.94 568.764 311.024C569.142 310.982 570.696 310.814 571.494 310.814C573.048 310.814 574.434 310.73 574.854 310.688L576.744 310.016L577.878 310.1L579.432 310.016C579.474 310.016 579.516 310.016 579.558 310.016C581.07 310.016 582.582 311.654 582.582 312.242C582.582 313.166 580.566 314.426 580.104 314.426H580.062L579.6 314.342L578.676 314.804L572.796 315.056C572.796 315.056 567.378 316.316 566.286 316.316C564.732 316.316 563.85 315.014 563.85 313.712C563.85 313.67 563.85 313.586 563.85 313.544L564.06 308.756L564.564 307.496L564.858 303.632L565.194 302.918L565.32 299.348L566.16 294.056L566.37 289.1C566.412 287.378 567.63 286.076 569.184 286.076C569.226 286.076 569.268 286.076 569.31 286.076L570.444 286.16L571.326 285.95L573.174 286.286L574.434 286.076H578.088L580.482 286.328L582.624 286.244C583.212 286.244 584.22 287.42 584.22 288.554C584.22 288.848 584.178 289.142 584.01 289.394ZM622.754 312.704C622.754 313.88 621.368 314.972 620.066 314.972C619.1 314.972 618.134 314.342 617.882 312.704L617.21 309.05L616.664 307.664L616.58 305.144L616.328 303.968L616.58 301.952L615.992 294.602C615.95 294.14 615.866 293.804 615.614 293.804C615.446 293.804 615.194 293.972 614.858 294.476L612.926 297.332L610.784 302.162L608.726 304.388L607.298 306.614C606.794 307.454 606.374 308.126 605.072 308.126C603.896 308.126 603.224 306.992 602.846 305.9L601.838 303.044L601.292 302.33L600.998 300.944L600.2 300.104C600.2 300.104 597.932 294.686 596.714 294.686C596.42 294.686 596.294 295.316 596.294 295.82C596.294 296.282 596.756 296.87 596.756 297.71C596.756 298.718 596.252 300.188 596.084 300.692L596.168 301.826L595.874 303.506L596 306.74L595.622 308.084L595.37 311.066C595.328 312.158 594.32 313.376 593.354 313.376C592.514 313.376 590.918 312.494 590.918 311.318C590.918 310.562 591.212 309.302 591.422 308.756L591.254 307.958L591.716 305.438V301.91L592.136 300.524C592.136 300.524 592.304 298.802 592.304 296.156C592.304 291.284 594.11 287.336 595.706 287.336C596.378 287.336 597.344 288.008 597.932 288.848C598.73 289.856 600.704 292.754 600.746 292.796L601.544 293.552L602.426 295.694C602.552 295.862 603.98 297.584 604.82 298.802C605.366 299.516 604.736 301.028 605.702 301.028C606.458 301.028 606.962 299.894 608.474 296.912C609.902 294.14 613.808 286.916 614.018 286.58C614.732 285.32 616.37 284.942 617 284.942C618.008 284.942 618.722 286.202 619.058 288.596C619.184 289.352 619.94 291.788 620.318 293.804C620.36 294.098 620.402 294.392 620.402 294.644C620.402 295.232 620.276 295.736 620.276 296.282C620.276 296.534 620.318 296.786 620.36 297.08C620.486 297.668 620.906 298.592 620.906 298.592L621.032 303.968L622.502 310.688C622.628 311.444 622.754 311.99 622.754 312.704ZM653.479 309.89C653.479 310.982 651.379 313.208 650.455 313.208C649.783 313.208 648.565 312.032 648.565 312.032L648.061 310.688L648.187 309.092L647.767 308.126C647.767 308.126 646.969 306.488 646.801 305.354C646.297 303.212 645.877 301.784 645.163 301.784C644.323 301.784 641.677 302.582 639.619 302.582C638.443 302.582 637.939 302.624 637.771 303.128L637.183 304.388L636.889 305.48L636.343 306.488L635.965 307.496L634.831 308.966L633.865 311.486C633.487 312.41 632.101 313.166 631.555 313.166C630.673 313.166 629.161 311.822 629.161 310.604C629.161 309.428 630.505 307.202 630.841 306.698C630.967 306.194 631.261 304.892 631.597 304.136C632.143 302.96 633.151 301.28 633.151 301.28L635.125 297.5L636.343 294.098L637.015 292.964L638.527 289.646C639.325 287.882 639.997 285.95 641.971 285.95C643.525 285.95 644.239 286.664 645.373 289.142L648.355 296.198L648.649 297.584L650.707 302.036C650.917 302.33 651.421 303.002 651.505 303.422C651.967 304.724 651.925 305.9 652.387 306.866C652.933 308.168 653.479 309.302 653.479 309.89ZM644.407 297.122C644.407 296.744 643.777 295.736 643.777 295.736L643.567 294.98L642.601 293.258C642.601 293.258 642.475 292.292 642.013 292.292C641.383 292.292 639.871 294.896 639.577 296.324C639.493 296.702 639.409 297.122 639.409 297.416C639.409 297.668 639.451 297.794 639.619 297.794L643.315 297.542C643.861 297.5 644.407 297.332 644.407 297.122ZM681.288 300.23C680.28 306.152 678.432 310.646 671.376 311.822C671.124 311.864 670.242 312.074 670.242 312.074L668.604 311.612L666.882 311.486L665.244 310.604L664.11 310.268C664.11 310.268 663.228 309.722 662.43 308.588C662.304 308.378 661.884 307.748 661.716 307.37L660.918 306.782C660.918 306.782 659.322 304.556 659.322 300.566C659.322 296.492 660.162 293.846 662.43 292.334L666.252 289.814L667.68 288.848L668.604 288.05L671.922 287.252L674.778 287.378L676.332 287.168C676.71 287.126 677.088 287.084 677.424 287.084C680.028 287.084 681.288 288.596 681.288 290.528C681.288 291.746 680.742 292.838 679.608 292.838C678.978 292.838 677.382 291.494 675.45 291.494C672.762 291.494 669.444 292.712 668.73 292.964L668.226 293.468L666.336 294.56L664.278 296.576C663.732 297.038 663.69 297.962 663.69 299.432C663.69 299.642 663.69 299.852 663.69 300.062C663.69 303.968 665.832 305.648 666.126 305.858L667.806 306.404L669.024 307.16C669.192 307.244 669.906 307.454 670.452 307.454C676.122 307.454 676.542 302.414 676.542 302.414C676.542 302.414 676.584 302.162 676.584 301.868C676.584 301.658 676.542 301.448 676.5 301.364C676.458 301.28 676.332 301.28 676.206 301.28C675.87 301.28 675.408 301.406 675.114 301.406L672.93 301.532C672.888 301.532 672.846 301.532 672.804 301.532C671.712 301.532 670.83 300.482 670.83 299.642C670.83 298.298 672.09 297.332 672.72 297.248L674.232 296.996L675.072 296.702C675.072 296.702 676.206 296.954 676.962 296.954C677.592 296.954 679.02 296.87 679.02 296.87L679.986 297.542L680.868 298.046C680.868 298.046 681.33 299.18 681.33 299.936C681.33 300.062 681.288 300.146 681.288 300.23ZM697.823 290.276C697.823 291.2 697.067 292.628 696.815 293.132L696.605 296.576L696.269 297.836L696.017 300.188L695.807 301.7C695.807 301.7 694.799 306.74 694.799 308.084C694.799 309.764 694.631 310.73 694.463 311.234C694.169 312.116 694.001 312.452 694.001 312.452L693.917 313.544C693.749 314.552 690.935 315.35 690.935 315.35L690.263 314.006L689.675 313.376L689.885 310.478L690.473 307.118V305.564L690.809 304.766L691.481 302.246L691.565 300.902L692.195 298.004L692.447 293.048C692.447 292.166 692.615 291.452 693.077 290.696C693.749 289.604 694.337 288.176 695.765 288.176C696.899 288.176 697.823 288.974 697.823 290.276Z" fill="#F7F5F2"/>
<defs>
<filter id="filter0_d_50_82" x="0.43457" y="0.465332" width="649.818" height="631.064" filterUnits="userSpaceOnUse" color-interpolation-filters="sRGB">
<feFlood flood-opacity="0" result="BackgroundImageFix"/>
<feColorMatrix in="SourceAlpha" type="matrix" values="0 0 0 0 0 0 0 0 0 0 0 0 0 0 0 0 0 0 127 0" result="hardAlpha"/>
<feOffset/>
<feGaussianBlur stdDeviation="144"/>
<feColorMatrix type="matrix" values="0 0 0 0 0.956863 0 0 0 0 0.0235294 0 0 0 0 0.0235294 0 0 0 1 0"/>
<feBlend mode="normal" in2="BackgroundImageFix" result="effect1_dropShadow_50_82"/>
<feBlend mode="normal" in="SourceGraphic" in2="effect1_dropShadow_50_82" result="shape"/>
</filter>
<filter id="filter1_d_50_82" x="121" y="109.655" width="401.127" height="339.347" filterUnits="userSpaceOnUse" color-interpolation-filters="sRGB">
<feFlood flood-opacity="0" result="BackgroundImageFix"/>
<feColorMatrix in="SourceAlpha" type="matrix" values="0 0 0 0 0 0 0 0 0 0 0 0 0 0 0 0 0 0 127 0" result="hardAlpha"/>
<feOffset/>
<feGaussianBlur stdDeviation="75"/>
<feColorMatrix type="matrix" values="0 0 0 0 0.956863 0 0 0 0 0.0235294 0 0 0 0 0.0235294 0 0 0 0.5 0"/>
<feBlend mode="normal" in2="BackgroundImageFix" result="effect1_dropShadow_50_82"/>
<feBlend mode="normal" in="SourceGraphic" in2="effect1_dropShadow_50_82" result="shape"/>
</filter>
</defs>
</svg>
