<svg width="481" height="506" viewBox="0 0 481 506" fill="none" xmlns="http://www.w3.org/2000/svg">
<g clip-path="url(#clip0_342_115)">
<g filter="url(#filter0_d_342_115)">
<path d="M126.752 258.36C132.463 300.995 128.656 344.878 115.699 385.897C115.256 387.301 114.799 388.747 114.956 390.213C115.188 392.389 116.729 394.162 118.19 395.785C123.559 401.738 128.928 407.691 134.291 413.645C140.438 420.464 146.79 427.44 154.998 431.559C160.067 434.103 165.635 435.446 170.997 437.281C177.117 439.374 182.998 442.123 189.023 444.482C201.692 449.44 283.81 468.521 353.914 418.609C363.697 411.64 378.284 399.747 392.68 380.966C388.273 373.622 382.112 362.376 376.49 347.94C366.222 321.562 363.52 299.317 360.17 270.124C358.771 257.903 357.236 241.107 356.629 220.928" fill="black"/>
<path d="M126.752 258.36C132.463 300.995 128.656 344.878 115.699 385.897C115.256 387.301 114.799 388.747 114.956 390.213C115.188 392.389 116.729 394.162 118.19 395.785C123.559 401.738 128.928 407.691 134.291 413.645C140.438 420.464 146.79 427.44 154.998 431.559C160.067 434.103 165.635 435.446 170.997 437.281C177.117 439.374 182.998 442.123 189.023 444.482C201.692 449.44 283.81 468.521 353.914 418.609C363.697 411.64 378.284 399.747 392.68 380.966C388.273 373.622 382.112 362.376 376.49 347.94C366.222 321.562 363.52 299.317 360.17 270.124C358.771 257.903 357.236 241.107 356.629 220.928" stroke="black" stroke-width="4" stroke-miterlimit="10"/>
</g>
<g filter="url(#filter1_d_342_115)">
<path d="M89.2067 124.604C75.1656 133.797 55.721 146.529 49.3144 171.556C44.1565 191.7 48.8983 214.15 61.6431 230.169C65.9141 235.542 78.1199 249.038 119.07 257.03C173.099 267.58 218.156 257.058 233.295 253.593C284.384 241.925 434.64 207.603 431.924 171.951C431.126 161.524 413.619 152.168 393.717 141.264C381.225 134.417 370.247 130.735 360.968 127.625C345.931 122.579 333.896 120.022 324.126 118.078C292.503 111.791 269.114 107.14 235.431 104.439C202.607 101.814 183.715 100.3 157.236 103.75C133.411 106.853 111.797 109.827 89.2204 124.611L89.2067 124.604Z" fill="#CCCCCC"/>
<path d="M89.2067 124.604C75.1656 133.797 55.721 146.529 49.3144 171.556C44.1565 191.7 48.8983 214.15 61.6431 230.169C65.9141 235.542 78.1199 249.038 119.07 257.03C173.099 267.58 218.156 257.058 233.295 253.593C284.384 241.925 434.64 207.603 431.924 171.951C431.126 161.524 413.619 152.168 393.717 141.264C381.225 134.417 370.247 130.735 360.968 127.625C345.931 122.579 333.896 120.022 324.126 118.078C292.503 111.791 269.114 107.14 235.431 104.439C202.607 101.814 183.715 100.3 157.236 103.75C133.411 106.853 111.797 109.827 89.2204 124.611L89.2067 124.604Z" stroke="black" stroke-width="4" stroke-miterlimit="10"/>
</g>
<path d="M122.433 195.424C125.688 211.211 169.23 214.204 179.471 214.914C192.318 215.8 203.016 215.159 227.946 211.845C320.291 199.57 331.774 187.268 335.711 178.089C336.816 175.518 338.501 171.426 337.075 167.178C335.363 162.084 328.956 156.117 274.306 150.811C254.077 148.847 243.966 147.865 232.006 148.083C223.245 148.24 202.15 149.079 176.06 155.585C154.657 160.924 146.988 165.814 143.993 167.86C139.272 171.085 120.107 184.158 122.433 195.424Z" fill="#333333" stroke="black" stroke-width="4" stroke-miterlimit="10"/>
<path d="M153.749 59.4467C140.977 98.0377 147.868 133.246 148.783 140.973C153.715 182.864 165.662 199.804 166.931 207.714C167.013 208.212 167.306 210.053 168.718 211.444C170.124 212.829 172.3 212.999 174.272 213.061C188.081 213.483 201.924 212.624 215.577 210.503C216.675 210.333 217.808 210.142 218.763 209.562C221.335 208.001 221.574 204.427 221.526 201.42C220.837 159.494 220.844 138.525 220.441 135.517C215.611 99.5039 217.105 95.0985 211.688 76.7407C207.519 62.6109 202.839 52.3545 193.307 44.4781C190.49 42.1459 177.874 31.303 167.668 35.8311C160.19 39.1453 156.083 52.4091 153.749 59.4467Z" fill="white" stroke="black" stroke-width="4" stroke-miterlimit="10"/>
<path d="M163.513 36.1107C173.856 39.3363 182.186 47.39 187.638 56.753C193.089 66.1093 195.941 76.7407 198.111 87.3449C204.654 119.369 205.438 152.245 206.141 184.924C206.332 193.898 206.516 202.934 205.07 211.799" stroke="black" stroke-width="4" stroke-miterlimit="10"/>
<path d="M247.575 205.986C247.152 198.267 246.729 190.534 246.784 182.8C246.818 177.563 247.077 172.326 247.336 167.095C248.012 153.313 248.694 139.531 249.792 125.783C250.618 115.486 251.955 108.128 254.623 99.4196C257.489 90.0497 263.608 75.1766 277.977 59.3147C277.977 59.3147 290.087 46.4532 301.577 44.5575C302.682 44.3733 305.711 44.3938 308.604 45.744C319.971 51.0495 319.971 74.0582 319.664 104.364C319.561 114.361 319.561 123.472 317.583 141.516C316.102 154.984 313.612 168.309 311.122 181.628C310.242 186.34 310.405 192.695 305.834 195.11C301.017 197.66 293.301 198.028 287.965 199.153C284.616 199.863 247.582 206.177 247.568 205.98L247.575 205.986Z" fill="white" stroke="black" stroke-width="4" stroke-miterlimit="10"/>
<path d="M304.504 45.3212C301.925 44.121 299.059 46.1941 297.101 48.2536C279.99 66.2091 274.845 92.1501 270.943 116.645C266.297 145.792 262.333 175.149 262.264 204.657" stroke="black" stroke-width="4" stroke-miterlimit="10"/>
</g>
<defs>
<filter id="filter0_d_342_115" x="-175.075" y="-67.1318" width="858.17" height="809.335" filterUnits="userSpaceOnUse" color-interpolation-filters="sRGB">
<feFlood flood-opacity="0" result="BackgroundImageFix"/>
<feColorMatrix in="SourceAlpha" type="matrix" values="0 0 0 0 0 0 0 0 0 0 0 0 0 0 0 0 0 0 127 0" result="hardAlpha"/>
<feOffset/>
<feGaussianBlur stdDeviation="144"/>
<feColorMatrix type="matrix" values="0 0 0 0 0.956863 0 0 0 0 0.0235294 0 0 0 0 0.0235294 0 0 0 1 0"/>
<feBlend mode="normal" in2="BackgroundImageFix" result="effect1_dropShadow_342_115"/>
<feBlend mode="normal" in="SourceGraphic" in2="effect1_dropShadow_342_115" result="shape"/>
</filter>
<filter id="filter1_d_342_115" x="-104.736" y="-50.2558" width="688.697" height="463.862" filterUnits="userSpaceOnUse" color-interpolation-filters="sRGB">
<feFlood flood-opacity="0" result="BackgroundImageFix"/>
<feColorMatrix in="SourceAlpha" type="matrix" values="0 0 0 0 0 0 0 0 0 0 0 0 0 0 0 0 0 0 127 0" result="hardAlpha"/>
<feOffset/>
<feGaussianBlur stdDeviation="75"/>
<feColorMatrix type="matrix" values="0 0 0 0 0.956863 0 0 0 0 0.0235294 0 0 0 0 0.0235294 0 0 0 0.5 0"/>
<feBlend mode="normal" in2="BackgroundImageFix" result="effect1_dropShadow_342_115"/>
<feBlend mode="normal" in="SourceGraphic" in2="effect1_dropShadow_342_115" result="shape"/>
</filter>
<clipPath id="clip0_342_115">
<rect width="481" height="506" fill="white"/>
</clipPath>
</defs>
</svg>
